<?xml version="1.0" standalone="no"?>
<!DOCTYPE svg PUBLIC "-//W3C//DTD SVG 20010904//EN"
 "http://www.w3.org/TR/2001/REC-SVG-20010904/DTD/svg10.dtd">
<svg version="1.0" xmlns="http://www.w3.org/2000/svg"
 width="260.000000pt" height="260.000000pt" viewBox="0 0 260.000000 260.000000"
 preserveAspectRatio="xMidYMid meet">
<metadata>
Created by potrace 1.11, written by Peter Selinger 2001-2013
</metadata>
<g transform="translate(0.000000,260.000000) scale(0.100000,-0.100000)"
fill="#000000" stroke="none">
<path d="M2 2508 l3 -92 35 -24 c19 -13 40 -38 46 -55 11 -32 12 -32 90 -38
88 -6 132 -24 159 -66 10 -15 33 -41 51 -58 18 -16 42 -46 52 -65 11 -22 37
-45 66 -61 27 -15 52 -33 57 -40 14 -23 10 -76 -7 -90 -28 -23 -44 -67 -44
-119 l0 -50 -50 0 c-53 0 -60 4 -113 73 -18 25 -41 40 -68 47 -23 6 -68 25
-101 42 -55 28 -64 29 -116 22 l-57 -9 -3 -519 -2 -520 23 22 c28 27 54 28 76
4 18 -21 47 -34 76 -36 18 -1 20 -7 17 -71 -4 -65 -21 -115 -41 -115 -4 0 -22
13 -39 30 -18 16 -37 30 -44 31 -7 0 -25 3 -41 5 l-27 5 0 -280 0 -280 49 21
c34 13 53 29 60 47 12 31 31 212 24 225 -3 5 0 6 8 4 11 -4 13 -27 11 -111 -2
-73 1 -107 8 -107 26 0 50 22 50 45 0 18 14 34 56 62 103 69 124 93 150 167
13 38 24 80 24 93 0 13 4 23 10 23 5 0 7 7 4 15 -4 8 -1 15 5 15 6 0 11 7 11
15 0 8 4 15 9 15 19 0 39 76 35 134 -2 32 -5 61 -8 64 -3 2 -1 12 4 22 6 11 6
30 0 51 -14 47 3 130 40 203 16 32 30 67 30 77 0 20 -24 26 -35 9 -9 -14 -45
-12 -45 3 0 12 49 55 86 75 20 11 22 9 28 -24 4 -19 20 -56 36 -82 16 -26 43
-71 60 -101 17 -29 33 -51 34 -50 2 2 6 18 9 36 6 28 3 32 -25 42 -17 6 -29
14 -25 17 3 3 14 1 25 -5 12 -6 32 -11 46 -11 46 0 55 -39 13 -57 -40 -18 -22
-45 39 -58 l47 -10 14 -60 c17 -75 34 -111 72 -153 17 -18 31 -36 31 -39 0 -3
14 -22 31 -42 46 -52 107 -91 144 -91 17 0 35 -4 40 -9 12 -11 81 -21 197 -27
121 -7 172 18 191 97 5 21 3 28 -12 32 -16 4 -19 14 -18 73 0 64 -1 69 -22 72
-15 3 -21 8 -17 19 3 8 6 21 6 28 0 7 20 23 46 35 25 12 43 24 41 26 -2 3 -35
7 -73 10 -38 3 -71 8 -73 10 -10 9 11 16 57 19 27 1 55 6 61 9 17 11 14 56 -5
56 -11 0 -13 6 -9 19 11 36 -80 76 -104 47 -8 -9 -18 -16 -24 -16 -5 0 -2 9 8
20 10 11 28 20 41 20 13 0 33 10 44 23 18 18 21 30 16 63 -7 55 -24 91 -46 97
-10 2 -25 26 -35 53 -27 73 -42 81 -139 77 -87 -4 -126 -21 -126 -53 0 -17 6
-18 58 -13 72 7 62 -5 -30 -37 -66 -23 -101 -50 -86 -66 4 -3 39 2 78 12 68
18 72 18 81 1 7 -11 22 -17 48 -17 21 0 59 -3 85 -6 42 -6 46 -9 40 -28 -4
-12 -24 -37 -45 -57 -39 -36 -42 -43 -40 -89 2 -29 -33 -80 -55 -80 -21 0 -76
-91 -71 -118 7 -35 -12 -37 -24 -3 -6 17 -15 31 -20 31 -5 0 -9 9 -9 21 0 12
-8 23 -19 26 -22 6 -38 36 -22 41 6 2 11 10 11 17 0 17 -42 28 -51 13 -6 -9
-11 -8 -23 1 -8 7 -20 10 -26 6 -15 -9 -39 25 -34 49 2 11 -5 25 -16 33 -11 8
-20 23 -20 33 0 27 -21 70 -49 98 -18 18 -22 30 -17 55 4 18 8 41 10 52 9 43
26 71 65 110 23 21 41 47 41 57 0 17 19 23 62 20 19 -2 121 95 113 107 -7 13
88 60 151 74 49 11 70 11 129 0 38 -8 82 -20 97 -28 29 -17 68 -20 68 -6 0 22
34 41 72 41 87 0 158 71 143 143 -24 112 -158 220 -275 221 -70 1 -109 -18
-199 -100 -39 -35 -80 -64 -90 -64 -10 0 -24 -7 -31 -15 -7 -8 -28 -15 -47
-15 -20 0 -52 -9 -72 -19 -20 -11 -51 -24 -69 -30 -30 -9 -31 -9 -22 8 5 11
31 38 57 61 46 41 47 43 18 36 -16 -4 -66 -25 -110 -46 -76 -36 -114 -44 -70
-14 51 34 56 40 49 57 -3 10 -14 16 -23 15 -11 -2 -16 4 -16 22 0 25 -1 25
-75 22 -41 -2 -79 -8 -84 -13 -5 -4 -18 -4 -28 2 -14 7 -23 7 -34 -1 -7 -7
-26 -10 -41 -7 -23 5 -34 -1 -61 -31 l-33 -37 36 60 c65 107 148 164 310 212
68 20 261 19 311 -2 46 -19 84 -19 84 -1 0 24 -26 36 -82 39 -50 3 -57 6 -96
49 -24 25 -55 64 -71 85 -32 44 -77 77 -95 70 -7 -3 -35 -1 -64 4 -41 8 -58 7
-83 -6 -22 -12 -45 -15 -78 -11 -102 12 -170 -48 -182 -163 -7 -67 -49 -171
-68 -171 -25 0 -328 228 -387 291 -75 80 -127 119 -156 119 l-29 0 3 -92z
m533 -974 c0 -10 -10 -23 -21 -29 -39 -19 -52 -35 -59 -71 -5 -31 -70 -114
-89 -114 -3 0 -6 30 -6 68 0 72 -1 70 89 127 9 6 27 18 40 28 29 21 46 18 46
-9z m95 -129 c-7 -9 -15 -13 -17 -11 -7 7 7 26 19 26 6 0 6 -6 -2 -15z m80 -7
c0 -6 -6 -5 -15 2 -8 7 -15 14 -15 16 0 2 7 1 15 -2 8 -4 15 -11 15 -16z m74
-33 c11 -9 16 -20 12 -31 -5 -13 -9 -14 -21 -4 -19 15 -62 -9 -75 -43 -7 -20
-9 -20 -15 -4 -11 26 2 47 35 59 20 7 29 15 26 24 -7 18 14 17 38 -1z m67
-153 c5 -14 5 -30 0 -40 -7 -13 -12 -10 -24 20 -8 19 -20 39 -26 42 -5 4 -8
13 -4 22 5 13 8 12 25 -3 11 -10 24 -28 29 -41z m-31 -102 c0 -5 -2 -10 -4
-10 -3 0 -8 5 -11 10 -3 6 -1 10 4 10 6 0 11 -4 11 -10z m545 -140 c13 -12 48
-26 83 -32 59 -11 60 -12 35 -25 -14 -7 -32 -13 -39 -13 -8 0 -14 -7 -14 -15
0 -8 6 -15 13 -15 8 0 7 -4 -3 -10 -21 -14 -30 -12 -30 4 0 7 -12 22 -27 32
-43 28 -53 40 -53 68 0 31 7 32 35 6z"/>
<path d="M2237 2342 c-26 -29 -18 -52 25 -74 36 -19 37 -19 87 3 52 22 65 45
37 68 -7 6 -40 14 -72 17 -51 5 -61 4 -77 -14z"/>
<path d="M2204 2106 c-11 -46 -1 -81 25 -84 27 -4 60 30 61 60 0 46 -75 67
-86 24z"/>
<path d="M2398 2103 c-23 -6 -23 -25 0 -53 11 -13 23 -19 34 -15 21 8 30 45
16 62 -11 13 -19 14 -50 6z"/>
<path d="M1931 2017 c-15 -15 -14 -77 2 -78 19 -2 62 3 66 7 7 6 -32 73 -45
78 -6 2 -17 -1 -23 -7z"/>
<path d="M2208 1924 c-5 -4 -8 -35 -8 -68 0 -61 18 -109 80 -216 11 -19 20
-52 20 -72 0 -38 0 -38 40 -38 54 0 174 57 223 106 l37 37 0 99 0 99 -30 -16
c-44 -23 -67 -19 -132 25 -33 22 -70 40 -83 40 -12 0 -49 3 -81 6 -32 3 -62 3
-66 -2z"/>
<path d="M1734 1566 c-17 -13 -19 -24 -15 -108 2 -51 4 -153 5 -226 0 -72 5
-132 9 -132 5 0 39 31 75 68 77 78 130 100 270 112 45 4 85 9 88 13 3 3 -1 16
-9 29 -9 12 -20 41 -26 63 -8 29 -23 49 -56 73 -50 36 -61 38 -85 17 -10 -9
-35 -19 -56 -22 -22 -3 -54 -17 -72 -30 -27 -20 -36 -22 -48 -12 -16 13 -11
65 12 111 24 47 19 58 -29 58 -24 0 -52 -6 -63 -14z"/>
<path d="M1592 1539 c-47 -34 -56 -73 -24 -102 25 -23 35 -21 22 2 -5 11 -10
27 -10 35 0 24 27 19 33 -6 6 -21 7 -21 27 -3 24 22 25 38 5 55 -11 9 -13 16
-5 24 12 12 13 26 2 26 -4 0 -27 -14 -50 -31z"/>
<path d="M1135 1534 c-19 -20 -5 -35 26 -27 15 4 16 9 8 24 -12 23 -13 23 -34
3z"/>
<path d="M2551 1304 c-19 -13 -52 -29 -75 -34 -23 -6 -63 -17 -89 -26 -34 -12
-63 -14 -99 -10 l-50 7 8 -43 c11 -60 6 -195 -8 -234 -9 -25 -9 -39 0 -59 26
-56 7 -111 -35 -103 -10 2 -30 29 -47 62 -24 48 -36 62 -72 77 -24 11 -46 24
-49 29 -3 6 -19 10 -34 10 -15 0 -36 7 -47 15 -10 8 -27 15 -36 15 -21 0 -53
-44 -43 -60 4 -6 12 -32 18 -57 7 -26 17 -48 23 -50 6 -2 22 12 35 32 27 39
39 46 66 39 16 -4 18 -16 18 -87 0 -102 29 -165 83 -179 21 -6 32 -15 32 -27
0 -31 57 -65 215 -126 85 -34 130 -59 172 -98 27 -25 35 -28 48 -17 13 11 15
71 15 481 0 258 -3 469 -7 468 -5 0 -23 -12 -42 -25z"/>
<path d="M1626 925 c-3 -8 -1 -15 4 -15 6 0 10 7 10 15 0 8 -2 15 -4 15 -2 0
-6 -7 -10 -15z"/>
<path d="M1894 768 c-4 -6 1 -17 12 -25 20 -15 30 -4 20 22 -6 18 -22 19 -32
3z"/>
<path d="M887 688 c-4 -13 -20 -31 -37 -41 -16 -10 -35 -27 -40 -38 -6 -10
-20 -19 -30 -19 -18 0 -25 -11 -21 -34 1 -4 -3 -14 -10 -22 -9 -11 -6 -16 15
-25 29 -14 33 -27 11 -43 -16 -12 -28 -93 -15 -101 5 -3 13 2 18 11 8 15 12
14 41 -7 17 -12 27 -25 21 -29 -15 -9 0 -49 21 -55 21 -7 24 -16 9 -31 -6 -6
-12 -20 -15 -32 -3 -17 2 -21 23 -22 65 -2 131 3 126 11 -2 3 6 15 16 27 11
12 20 23 20 25 0 2 -16 4 -36 5 -43 2 -76 27 -72 56 2 15 -2 21 -14 20 -19 -2
-36 35 -20 45 5 3 8 20 6 36 -11 99 -7 135 12 135 14 0 16 9 11 61 -6 69 -30
108 -40 67z m83 -442 c0 -16 -18 -31 -27 -22 -8 8 5 36 17 36 5 0 10 -6 10
-14z"/>
<path d="M480 445 c-6 -7 -17 -12 -25 -9 -17 7 -30 -123 -21 -202 5 -46 3 -57
-14 -74 -14 -14 -19 -32 -18 -60 2 -59 -17 -72 -36 -25 -9 21 -16 42 -16 48 0
6 -3 8 -6 5 -3 -3 0 -33 7 -67 l13 -61 256 0 257 0 -89 93 c-49 50 -100 111
-115 135 -15 26 -31 41 -39 38 -17 -6 -52 39 -93 121 -35 70 -44 79 -61 58z
m17 -178 c9 -19 10 -41 3 -82 -2 -16 -38 68 -39 92 -1 28 22 21 36 -10z"/>
<path d="M1892 393 c1 -46 -2 -63 -17 -132 -9 -40 -21 -32 -29 20 -9 59 -15
64 -42 38 -18 -17 -31 -21 -59 -16 -19 3 -35 2 -35 -3 0 -5 -11 -5 -24 1 -33
16 -45 6 -121 -96 -37 -49 -92 -116 -123 -148 l-56 -57 372 0 372 0 0 73 c-1
90 -17 274 -26 288 -4 8 -9 7 -14 -1 -10 -15 -30 -4 -30 16 0 9 -7 14 -17 12
-12 -2 -19 4 -21 20 -6 43 -21 22 -24 -35 -2 -31 -8 -58 -14 -60 -7 -2 -25 26
-42 62 -17 36 -35 65 -41 65 -5 0 -9 -21 -9 -47z"/>
<path d="M231 168 c-1 -15 8 -64 25 -146 4 -19 11 -22 48 -22 39 0 44 2 39 20
-5 20 -23 28 -23 10 0 -5 -4 -10 -10 -10 -12 0 -36 47 -61 114 -9 28 -18 43
-18 34z"/>
<path d="M331 154 c0 -11 3 -14 6 -6 3 7 2 16 -1 19 -3 4 -6 -2 -5 -13z"/>
</g>
</svg>
